<svg width="11" height="20" viewBox="0 0 11 20" fill="none" xmlns="http://www.w3.org/2000/svg">
<path d="M10.62 0.989976C10.5039 0.873568 10.366 0.781211 10.2141 0.718195C10.0622 0.655179 9.89942 0.622742 9.735 0.622742C9.57058 0.622742 9.40778 0.655179 9.25592 0.718195C9.10406 0.781211 8.96612 0.873568 8.85 0.989976L0.540003 9.29998C0.447299 9.39249 0.373752 9.50238 0.32357 9.62335C0.273389 9.74433 0.247559 9.87401 0.247559 10.005C0.247559 10.1359 0.273389 10.2656 0.32357 10.3866C0.373752 10.5076 0.447299 10.6175 0.540003 10.71L8.85 19.02C9.34 19.51 10.13 19.51 10.62 19.02C11.11 18.53 11.11 17.74 10.62 17.25L3.38 9.99998L10.63 2.74998C11.11 2.26998 11.11 1.46998 10.62 0.989976Z" fill="#59A4F2"/>
</svg>
