<svg width="460" height="460" viewBox="0 0 460 460" fill="none" xmlns="http://www.w3.org/2000/svg">
<path d="M373.75 0H86.25C38.6046 0 0 38.6046 0 86.25V373.75C0 421.395 38.6046 460 86.25 460H373.75C421.395 460 460 421.395 460 373.75V86.25C460 38.6046 421.395 0 373.75 0ZM332.262 307.74L307.705 332.279C303.211 336.791 295.851 336.791 291.357 332.279L230 270.922L168.661 332.262C164.149 336.773 156.807 336.773 152.295 332.226L127.738 307.74C123.262 303.211 123.262 295.904 127.738 291.357L189.095 230.018L127.756 168.678C123.262 164.149 123.262 156.789 127.756 152.313L152.313 127.756C156.825 123.209 164.185 123.209 168.678 127.756L230 189.113L291.357 127.756C295.868 123.209 303.228 123.209 307.705 127.756L332.262 152.278C336.755 156.789 336.755 164.149 332.279 168.678L270.922 230.018L332.279 291.357C336.738 295.904 336.738 303.211 332.262 307.74Z" fill="#FF4343"/>
</svg>
